<svg width="278" height="278" viewBox="0 0 278 278" fill="none" xmlns="http://www.w3.org/2000/svg">
<circle cx="139" cy="139" r="139" fill="#A6A6A6"/>
<path fill-rule="evenodd" clip-rule="evenodd" d="M179 109C179 119.609 174.786 129.783 167.284 137.284C159.783 144.786 149.609 149 139 149C128.391 149 118.217 144.786 110.716 137.284C103.214 129.783 99 119.609 99 109C99 98.3913 103.214 88.2172 110.716 80.7157C118.217 73.2143 128.391 69 139 69C149.609 69 159.783 73.2143 167.284 80.7157C174.786 88.2172 179 98.3913 179 109V109ZM159 109C159 114.304 156.893 119.391 153.142 123.142C149.391 126.893 144.304 129 139 129C133.696 129 128.609 126.893 124.858 123.142C121.107 119.391 119 114.304 119 109C119 103.696 121.107 98.6086 124.858 94.8579C128.609 91.1071 133.696 89 139 89C144.304 89 149.391 91.1071 153.142 94.8579C156.893 98.6086 159 103.696 159 109V109Z" fill="#4B4B4B"/>
<path fill-rule="evenodd" clip-rule="evenodd" d="M139 29C78.25 29 29 78.25 29 139C29 199.75 78.25 249 139 249C199.75 249 249 199.75 249 139C249 78.25 199.75 29 139 29ZM49 139C49 159.9 56.13 179.14 68.08 194.42C76.4723 183.399 87.299 174.467 99.7143 168.323C112.13 162.179 125.797 158.988 139.65 159C153.323 158.987 166.819 162.095 179.109 168.088C191.399 174.08 202.16 182.799 210.57 193.58C219.234 182.216 225.068 168.952 227.589 154.886C230.11 140.82 229.244 126.355 225.065 112.69C220.886 99.0243 213.512 86.5505 203.555 76.3004C193.598 66.0503 181.343 58.3186 167.804 53.7451C154.265 49.1716 139.832 47.8877 125.699 49.9997C111.565 52.1117 98.1379 57.5589 86.5277 65.8905C74.9175 74.2222 65.4581 85.1987 58.9323 97.912C52.4065 110.625 49.0018 124.71 49 139V139ZM139 229C118.339 229.031 98.3027 221.923 82.28 208.88C88.7293 199.647 97.3134 192.109 107.302 186.907C117.29 181.705 128.388 178.992 139.65 179C150.772 178.991 161.735 181.636 171.629 186.714C181.524 191.793 190.064 199.159 196.54 208.2C180.393 221.667 160.026 229.029 139 229V229Z" fill="#4B4B4B"/>
</svg>
