<svg width="206" height="206" viewBox="0 0 206 206" fill="none" xmlns="http://www.w3.org/2000/svg">
<rect width="206" height="206" rx="5" fill="#1C1C1C"/>
<path d="M98.25 126.75H107.75V107.75H126.75V98.25H107.75V79.25H98.25V98.25H79.25V107.75H98.25V126.75ZM103 150.5C96.4292 150.5 90.2542 149.252 84.475 146.757C78.6958 144.265 73.6688 140.881 69.3938 136.606C65.1188 132.331 61.7352 127.304 59.243 121.525C56.7477 115.746 55.5 109.571 55.5 103C55.5 96.4292 56.7477 90.2542 59.243 84.475C61.7352 78.6958 65.1188 73.6688 69.3938 69.3938C73.6688 65.1188 78.6958 61.7336 84.475 59.2382C90.2542 56.7461 96.4292 55.5 103 55.5C109.571 55.5 115.746 56.7461 121.525 59.2382C127.304 61.7336 132.331 65.1188 136.606 69.3938C140.881 73.6688 144.265 78.6958 146.757 84.475C149.252 90.2542 150.5 96.4292 150.5 103C150.5 109.571 149.252 115.746 146.757 121.525C144.265 127.304 140.881 132.331 136.606 136.606C132.331 140.881 127.304 144.265 121.525 146.757C115.746 149.252 109.571 150.5 103 150.5ZM103 141C113.608 141 122.594 137.319 129.956 129.956C137.319 122.594 141 113.608 141 103C141 92.3917 137.319 83.4062 129.956 76.0437C122.594 68.6812 113.608 65 103 65C92.3917 65 83.4062 68.6812 76.0437 76.0437C68.6812 83.4062 65 92.3917 65 103C65 113.608 68.6812 122.594 76.0437 129.956C83.4062 137.319 92.3917 141 103 141Z" fill="url(#paint0_linear_855_6)"/>
<defs>
<linearGradient id="paint0_linear_855_6" x1="55" y1="103" x2="150" y2="103" gradientUnits="userSpaceOnUse">
<stop stop-color="#8700C7"/>
<stop offset="0.28125" stop-color="#9050AE"/>
<stop offset="0.596997" stop-color="#FFB7F1"/>
<stop offset="1" stop-color="#9601AB"/>
</linearGradient>
</defs>
</svg>
